<svg xmlns="http://www.w3.org/2000/svg" xmlns:xlink="http://www.w3.org/1999/xlink" width="470" height="468" id="galaxy-appstore">
  <defs>
    <filter id="a" width="111.8%" height="111.9%" x="-5.9%" y="-3.9%" filterUnits="objectBoundingBox">
      <feOffset dy="5" in="SourceAlpha" result="shadowOffsetOuter1"></feOffset>
      <feGaussianBlur in="shadowOffsetOuter1" result="shadowBlurOuter1" stdDeviation="4"></feGaussianBlur>
      <feColorMatrix in="shadowBlurOuter1" result="shadowMatrixOuter1" values="0 0 0 0 0 0 0 0 0 0 0 0 0 0 0 0 0 0 0.078125 0"></feColorMatrix>
      <feOffset dy="4" in="SourceAlpha" result="shadowOffsetOuter2"></feOffset>
      <feGaussianBlur in="shadowOffsetOuter2" result="shadowBlurOuter2" stdDeviation="5.5"></feGaussianBlur>
      <feColorMatrix in="shadowBlurOuter2" result="shadowMatrixOuter2" values="0 0 0 0 0 0 0 0 0 0 0 0 0 0 0 0 0 0 0.210824275 0"></feColorMatrix>
      <feMerge>
        <feMergeNode in="shadowMatrixOuter1"></feMergeNode>
        <feMergeNode in="shadowMatrixOuter2"></feMergeNode>
      </feMerge>
    </filter>
    <filter id="c" width="192.3%" height="192.6%" x="-46.1%" y="-46.3%" filterUnits="objectBoundingBox">
      <feGaussianBlur in="SourceGraphic" stdDeviation="34.598"></feGaussianBlur>
    </filter>
    <path id="b" d="M9.635 132.808C24.782 59.782 71.388 19.109 144.085 6.822c53.74-9.081 107.5-9.196 161.15.255 74.852 13.185 119.85 56.23 134.185 130.36 11.075 57.29 11.249 115.191-.174 172.427-15.324 72.52-63.132 117.285-135.561 129.527-53.74 9.08-107.5 9.195-161.15-.255-74.852-13.186-120.05-58.38-134.384-132.509-11.64-57.668-10.52-115.935 1.484-173.82z"></path>
  </defs>
  <g fill="none" fill-rule="evenodd">
    <g transform="translate(11 7)">
      <use xlink:href="#b" fill="#000" filter="url(#a)"></use>
      <use xlink:href="#b" fill="#65BDF4"></use>
      <use xlink:href="#b"></use>
    </g>
    <path d="M115.841 177.733c7.611-36.694 31.03-57.13 67.559-63.305 27.003-4.563 54.017-4.62 80.974.128 37.612 6.625 60.222 28.255 67.425 65.503 5.566 28.788 5.653 57.882-.087 86.641-7.7 36.44-31.723 58.934-68.117 65.085-27.003 4.563-54.016 4.62-80.974-.128-37.612-6.626-60.322-29.335-67.526-66.583-5.848-28.977-5.285-58.255.746-87.34z" filter="url(#c)" transform="translate(11 7)"></path>
    <path fill="#FFF" d="M315.48 159.333v19.333h18.186v141.755c0 14.126-11.452 25.58-25.577 25.58H161.91c-14.125 0-25.578-11.454-25.578-25.58V178.666h43.798v29.431h19.333v-59.764h.156c.732-19.367 16.654-34.844 36.2-34.844 19.546 0 35.468 15.477 36.2 34.844h.035v11H221.64v19.333h50.415v29.431h19.332v-59.764h.122C290.769 118.203 266.129 94 235.82 94c-29.785 0-54.078 23.377-55.612 52.781h-.077v12.552H131.6c-8.064 0-14.6 6.537-14.6 14.6v149.232c0 23.29 18.878 42.168 42.166 42.168h151.665c23.29 0 42.168-18.879 42.168-42.168V173.933c0-8.063-6.538-14.6-14.6-14.6h-22.92z"></path>
  </g>
</svg>
