<svg xmlns="http://www.w3.org/2000/svg" xmlns:xlink="http://www.w3.org/1999/xlink" width="470" height="468" id="my-files">
  <defs>
    <filter id="a" width="111.8%" height="111.9%" x="-5.9%" y="-3.9%" filterUnits="objectBoundingBox">
      <feOffset dy="5" in="SourceAlpha" result="shadowOffsetOuter1"></feOffset>
      <feGaussianBlur in="shadowOffsetOuter1" result="shadowBlurOuter1" stdDeviation="4"></feGaussianBlur>
      <feColorMatrix in="shadowBlurOuter1" result="shadowMatrixOuter1" values="0 0 0 0 0 0 0 0 0 0 0 0 0 0 0 0 0 0 0.078125 0"></feColorMatrix>
      <feOffset dy="4" in="SourceAlpha" result="shadowOffsetOuter2"></feOffset>
      <feGaussianBlur in="shadowOffsetOuter2" result="shadowBlurOuter2" stdDeviation="5.5"></feGaussianBlur>
      <feColorMatrix in="shadowBlurOuter2" result="shadowMatrixOuter2" values="0 0 0 0 0 0 0 0 0 0 0 0 0 0 0 0 0 0 0.210824275 0"></feColorMatrix>
      <feMerge>
        <feMergeNode in="shadowMatrixOuter1"></feMergeNode>
        <feMergeNode in="shadowMatrixOuter2"></feMergeNode>
      </feMerge>
    </filter>
    <path id="b" d="M9.635 132.808C24.782 59.782 71.388 19.109 144.085 6.822c53.74-9.081 107.5-9.196 161.15.255 74.852 13.185 119.85 56.23 134.185 130.36 11.075 57.29 11.249 115.191-.174 172.427-15.324 72.52-63.132 117.285-135.561 129.527-53.74 9.08-107.5 9.195-161.15-.255-74.852-13.186-120.05-58.38-134.384-132.509-11.64-57.668-10.52-115.935 1.484-173.82z"></path>
  </defs>
  <g fill="none" fill-rule="evenodd">
    <g transform="translate(11 7)">
      <use xlink:href="#b" fill="#000" filter="url(#a)"></use>
      <use xlink:href="#b" fill="#F4A72E"></use>
    </g>
    <path fill="#FFF" d="M370.917 170H239.961a17.5 17.5 0 0 1-9.308-2.68c-3.367-2.112-28.285-28.653-28.285-28.653h-82.701V341H100V136.165c0-9.48 7.685-17.165 17.165-17.165h87.706a20.573 20.573 0 0 1 14.553 6.03c1.808 1.81 24.856 25.303 24.856 25.303h126.637V170zM351.25 295.96v-98.628h19.667v97.136c0 25.698-20.833 46.531-46.531 46.531H147.177v-19.667h178.701c14.013 0 25.372-11.359 25.372-25.372z"></path>
  </g>
</svg>
