<svg xmlns="http://www.w3.org/2000/svg" viewBox="0 0 26 26" id="Setting">
  <path fill-rule="evenodd" d="M6 0C2.676 0 0 2.676 0 6v14c0 3.324 2.676 6 6 6h14c3.324 0 6-2.676 6-6V6c0-3.324-2.676-6-6-6H6zm6.48 5h1.04C14.33 5 15 5.667 15 6.479v.904c.19.067.376.144.559.23l.636-.636a1.49 1.49 0 0 1 2.096 0l.732.734a1.49 1.49 0 0 1 0 2.096l-.636.636c.087.182.162.368.23.557h.903c.811 0 1.48.667 1.48 1.479v1.039c0 .811-.669 1.48-1.48 1.48h-.903a5.98 5.98 0 0 1-.228.559l.634.636c.574.574.574 1.52 0 2.094l-.732.736a1.491 1.491 0 0 1-2.096 0l-.638-.64a5.906 5.906 0 0 1-.557.236v.899A1.49 1.49 0 0 1 13.52 21h-1.04A1.49 1.49 0 0 1 11 19.518v-.905a5.931 5.931 0 0 1-.56-.228l-.635.638a1.489 1.489 0 0 1-2.094 0l-.734-.736a1.488 1.488 0 0 1 0-2.094l.636-.638a6.015 6.015 0 0 1-.232-.557h-.9c-.812 0-1.481-.669-1.481-1.48v-1.04C5 11.669 5.669 11 6.48 11h.905c.067-.19.142-.376.228-.559l-.636-.634a1.49 1.49 0 0 1 0-2.096l.734-.734a1.488 1.488 0 0 1 2.094 0l.636.638c.182-.087.37-.164.559-.232v-.904C11 5.667 11.669 5 12.48 5zm0 1a.467.467 0 0 0-.48.479V7.71a.5.5 0 0 1-.363.48 5 5 0 0 0-1.069.448.5.5 0 0 1-.597-.082l-.873-.873a.469.469 0 0 0-.68 0l-.734.734a.469.469 0 0 0 0 .68l.869.869a.5.5 0 0 1 .084.595 4.979 4.979 0 0 0-.44 1.07.5.5 0 0 1-.482.364H6.48a.47.47 0 0 0-.48.483v1.039c0 .275.205.48.48.48h1.23a.5.5 0 0 1 .483.363 5 5 0 0 0 .446 1.07.5.5 0 0 1-.084.598l-.871.871a.467.467 0 0 0 0 .678l.734.736a.469.469 0 0 0 .68 0l.869-.869a.5.5 0 0 1 .595-.082c.34.188.7.335 1.073.44a.5.5 0 0 1 .365.48v1.235c0 .275.205.48.48.48h1.04c.275 0 .48-.205.48-.48v-1.23a.5.5 0 0 1 .361-.481 5 5 0 0 0 1.069-.448.5.5 0 0 1 .6.082l.872.873a.469.469 0 0 0 .68 0l.734-.734a.469.469 0 0 0 0-.68l-.869-.869a.5.5 0 0 1-.084-.595c.188-.34.335-.7.44-1.073a.5.5 0 0 1 .482-.365h1.235c.275 0 .48-.205.48-.48v-1.04a.469.469 0 0 0-.48-.48H18.29a.5.5 0 0 1-.482-.361 4.994 4.994 0 0 0-.448-1.069.5.5 0 0 1 .08-.597l.875-.873a.469.469 0 0 0 0-.68l-.734-.734a.469.469 0 0 0-.68 0l-.869.869a.5.5 0 0 1-.596.084 4.996 4.996 0 0 0-1.072-.442.5.5 0 0 1-.365-.48V6.479A.467.467 0 0 0 13.52 6h-1.04zm.52 4a3.01 3.01 0 0 1 3.002 3A3.008 3.008 0 0 1 13 15.998c-1.65 0-3-1.347-3-2.998 0-1.65 1.35-3 3-3zm0 1c-1.11 0-2 .89-2 2 0 1.11.89 1.998 2 1.998 1.11 0 2-.888 2-1.998 0-1.11-.89-2-2-2z" fill="#615f5f" class="color000000 svgShape"></path>
</svg>
